<svg xmlns="http://www.w3.org/2000/svg" width="19" height="21" viewBox="0 0 19 21" fill="none">
    <path d="M13.3234 3.03597C13.3216 3.5969 12.864 4.05163 12.3031 4.05163C12.2958 4.05163 12.2885 4.05163 12.2811 4.05163C11.7323 4.05163 11.2875 3.61497 11.2875 3.06617C11.2875 2.51737 10.8425 2.06424 10.2937 2.06424C9.08676 2.06424 7.88827 2.06424 6.69232 2.06424C4.15449 2.06424 2.09718 4.12156 2.09718 6.65938C2.09718 9.05122 2.09718 11.4442 2.09718 13.8403C2.09718 16.3721 4.14958 18.4245 6.68134 18.4245C7.87241 18.4245 9.06769 18.4245 10.2718 18.4245C10.8206 18.4245 11.2655 17.9837 11.2655 17.4349C11.2655 16.8861 11.7104 16.4371 12.2592 16.4371C12.2684 16.4371 12.2775 16.4371 12.2866 16.4371C12.8506 16.4371 13.3149 16.8942 13.3252 17.4581C13.3327 17.8677 13.3329 18.274 13.2968 18.677C13.209 19.7201 12.3525 20.4558 11.2875 20.4668C8.21305 20.4777 5.12767 20.4777 2.05326 20.4668C0.845462 20.4668 0.01098 19.5774 0 18.3147C0 15.6685 0 13.0223 0 10.3871C0 7.68601 0 4.99591 0 2.29482C0 0.812521 0.812521 0 2.29482 0C5.21551 0 8.12521 0 11.0349 0C12.5172 0 13.3078 0.801541 13.3188 2.3058C13.3235 2.5463 13.3241 2.78882 13.3234 3.03597Z" fill="currentColor" />
    <path d="M16.8432 8.85555C17.6401 9.65958 17.6358 10.9564 16.835 11.7567C16.1742 12.4171 15.5017 13.0886 14.8192 13.7689C14.2684 14.3179 13.3298 13.9411 13.3298 13.1635C13.3298 12.6806 12.9383 12.2757 12.4554 12.2757C11.0359 12.2757 9.63498 12.2757 8.22955 12.2757C7.11073 12.2757 6.20374 11.3645 6.20374 10.2457C6.20374 9.12689 7.11071 8.22402 8.22954 8.22402C9.61661 8.22402 11.0103 8.22402 12.4244 8.22402C12.9001 8.22402 13.2858 7.813 13.2858 7.33723C13.2858 6.57111 14.2103 6.21221 14.7519 6.75408C15.4531 7.45567 16.1496 8.15589 16.8432 8.85555Z" fill="currentColor" />
  </svg>