<svg xmlns="http://www.w3.org/2000/svg" width="25" height="28" viewBox="0 0 25 28" fill="none">
    <g clipPath="url(#clip0_101_972)">
      <path d="M12.8298 0.772461C6.15769 0.772461 0.729492 6.7751 0.729492 14.1533C0.729492 21.5315 6.15769 27.5341 12.8298 27.5341C19.5019 27.5341 24.9301 21.5315 24.9301 14.1533C24.9301 6.7751 19.5019 0.772461 12.8298 0.772461ZM12.8298 25.1012C7.37073 25.1012 2.92955 20.19 2.92955 14.1533C2.92955 8.11659 7.37073 3.20534 12.8298 3.20534C18.2889 3.20534 22.7301 8.11659 22.7301 14.1533C22.7301 20.19 18.2888 25.1012 12.8298 25.1012Z" fill="#fff"/>
      <path d="M17.3672 9.42217L11.1444 16.3034L8.29241 13.1495C7.86289 12.6745 7.16635 12.6744 6.73675 13.1494C6.30715 13.6245 6.30715 14.3946 6.73675 14.8697L10.3666 18.8838C10.5728 19.1119 10.8526 19.2401 11.1443 19.2401C11.1444 19.2401 11.1443 19.2401 11.1444 19.2401C11.4361 19.2401 11.7159 19.1119 11.9222 18.8839L18.9229 11.1425C19.3525 10.6675 19.3525 9.89731 18.9229 9.42225C18.4933 8.94719 17.7968 8.94711 17.3672 9.42217Z" fill="#fff"/>
    </g>
    <defs>
      <clipPath id="clip0_101_972">
        <rect x="0.729492" y="0.772461" width="24.2006" height="26.7616" rx="10" fill="white"/>
      </clipPath>
    </defs>
  </svg>