<svg xmlns="http://www.w3.org/2000/svg" width="45" height="46" viewBox="0 0 45 46" fill="none">
    <path fill-rule="evenodd" clip-rule="evenodd" d="M9.06425 39.4164C8.67168 39.6323 8.31614 39.8968 7.99023 40.1815C11.8916 43.4712 16.9305 45.4552 22.4317 45.4552C27.896 45.4552 32.902 43.5019 36.7907 40.2556C36.4351 39.954 36.0426 39.681 35.613 39.4662L28.4462 35.8833C27.5203 35.4199 26.9331 34.4739 26.9331 33.4358V30.6265C27.1352 30.3979 27.3669 30.1016 27.6113 29.7535C28.5901 28.3737 29.3266 26.8553 29.8387 25.2638C30.7603 24.9802 31.4386 24.1316 31.4386 23.1243V20.1223C31.4386 19.461 31.1444 18.8695 30.6863 18.4568V14.1163C30.6863 14.1163 31.5793 7.36646 22.4317 7.36646C13.2894 7.36646 14.1814 14.1163 14.1814 14.1163V18.4568C13.7232 18.8695 13.4291 19.461 13.4291 20.1223V23.1243C13.4291 23.9126 13.847 24.6067 14.4671 25.012C15.2194 28.2774 17.1823 30.6265 17.1823 30.6265V33.3702C17.1823 34.3659 16.6331 35.2876 15.757 35.7669L9.06425 39.4164Z" fill="#FFF831" />
  </svg>