<svg xmlns="http://www.w3.org/2000/svg" width="13" height="11" viewBox="0 0 13 11" fill="none">
    <path d="M13 1.65669C12.5166 1.86875 12.0014 2.00931 11.4644 2.07756C12.0169 1.74769 12.4386 1.22931 12.6368 0.6045C12.1217 0.911625 11.5529 1.12856 10.9468 1.24963C10.4577 0.728813 9.76056 0.40625 9.00006 0.40625C7.52456 0.40625 6.33669 1.60388 6.33669 3.07206C6.33669 3.28331 6.35456 3.48644 6.39844 3.67981C4.18275 3.57175 2.22219 2.50981 0.905125 0.892125C0.675187 1.29106 0.540313 1.74769 0.540313 2.23925C0.540313 3.16225 1.01562 3.98044 1.72413 4.45412C1.29594 4.446 0.875875 4.32169 0.52 4.12587C0.52 4.134 0.52 4.14456 0.52 4.15512C0.52 5.45025 1.44381 6.526 2.65525 6.77381C2.43831 6.83313 2.20187 6.86156 1.9565 6.86156C1.78587 6.86156 1.61362 6.85181 1.45194 6.81606C1.79725 7.8715 2.77713 8.64744 3.94225 8.67262C3.0355 9.38194 1.88419 9.80931 0.637812 9.80931C0.41925 9.80931 0.209625 9.79956 0 9.77275C1.18056 10.5341 2.57969 10.9688 4.0885 10.9688C8.99275 10.9688 11.674 6.90625 11.674 3.38487C11.674 3.26706 11.6699 3.15331 11.6643 3.04037C12.1932 2.665 12.6376 2.19619 13 1.65669Z" fill="black" />
  </svg>